# xmcd
#
# Track frame offsets: 
#        150
#        17792
#        35611
#        52216
#        66715
#        89226
#        103172
#        133075
#        149503
#        173652
#        195508
#        219899
#        236539
#        248987
#        265403
#        294348
#
# Disc length: 4134 seconds
#
# Revision: 0
# Processed by: cddbd v1.5.2PL0 Copyright (c) Steve Scherf et al.
# Submitted via: ExactAudioCopy v0.95b4
#
DISCID=01102410
DTITLE=Various Artist - Soul Messages From Dimona
DYEAR=2008
DGENRE=Soul
TTITLE0=Soul Messengers and The Spirit of Israel - Burn Devil Burn
TTITLE1=Soul Messengers - Our Lord And Savior
TTITLE2=Tonistics - Holding On
TTITLE3=The Spirit Of Israel and Soul Messengers - Daniel
TTITLE4=Sons Of The Kingdom - Hey There
TTITLE5=Soul Messengers - Go To Proclaim
TTITLE6=Soul Messengers - Equilibrium
TTITLE7=Soul Messengers - Prince Of Zeal
TTITLE8=Sons Of The Kingdom - Modernization
TTITLE9=Soul Messengers - Heaven Of Heavens
TTITLE10=Soul Messengers - Victory
TTITLE11=Tonistics - Dimona (Spiritual Capital of the World)
TTITLE12=Soul Messengers - Junky Baby
TTITLE13=The Spirit Of Israel and Soul Messengers - A Place To Be
TTITLE14=Soul Messengers - Messiah
TTITLE15=Soul Messengers - Savior In The East
EXTD=
EXTT0=
EXTT1=
EXTT2=
EXTT3=
EXTT4=
EXTT5=
EXTT6=
EXTT7=
EXTT8=
EXTT9=
EXTT10=
EXTT11=
EXTT12=
EXTT13=
EXTT14=
EXTT15=
PLAYORDER=
